# Blender v3.0.0 OBJ File: ''
# www.blender.org
g LightConeMesh1
v 0.500000 -0.000000 1.000000
v 0.007000 0.000000 0.000000
v 0.006467 0.002679 0.000000
v 0.461940 0.191342 1.000000
v 0.004949 0.004949 0.000000
v 0.353554 0.353554 1.000000
v 0.002679 0.006467 0.000000
v 0.191342 0.461940 1.000000
v 0.000000 0.007000 0.000000
v 0.000000 0.500000 1.000000
v -0.002679 0.006467 0.000000
v -0.191341 0.461940 1.000000
v -0.004949 0.004949 0.000000
v -0.353553 0.353554 1.000000
v -0.006467 0.002679 0.000000
v -0.461940 0.191342 1.000000
v -0.007000 0.000000 0.000000
v -0.500000 -0.000000 1.000000
v -0.006467 -0.002679 -0.000000
v -0.461940 -0.191342 1.000000
v -0.004949 -0.004949 -0.000000
v -0.353553 -0.353554 1.000000
v -0.002679 -0.006467 -0.000000
v -0.191342 -0.461940 1.000000
v 0.000000 -0.007000 -0.000000
v 0.000000 -0.500000 1.000000
v 0.002679 -0.006467 -0.000000
v 0.191342 -0.461940 1.000000
v 0.004949 -0.004949 -0.000000
v 0.353554 -0.353554 1.000000
v 0.006467 -0.002679 -0.000000
v 0.461940 -0.191342 1.000000
vn 0.8741 -0.0000 0.4857
vn 0.5725 0.0000 -0.8199
vn 0.5289 0.2191 -0.8199
vn 0.8076 0.3345 0.4857
vn 0.4047 0.4047 -0.8200
vn 0.6181 0.6181 0.4857
vn 0.2191 0.5289 -0.8199
vn 0.3345 0.8076 0.4857
vn -0.0000 0.5725 -0.8199
vn -0.0000 0.8741 0.4857
vn -0.2191 0.5289 -0.8199
vn -0.3345 0.8076 0.4857
vn -0.4047 0.4047 -0.8200
vn -0.6181 0.6181 0.4857
vn -0.5289 0.2191 -0.8199
vn -0.8076 0.3345 0.4857
vn -0.5725 0.0000 -0.8199
vn -0.8741 -0.0000 0.4857
vn -0.5289 -0.2191 -0.8199
vn -0.8076 -0.3345 0.4857
vn -0.4047 -0.4047 -0.8200
vn -0.6181 -0.6181 0.4857
vn -0.2191 -0.5289 -0.8199
vn -0.3345 -0.8076 0.4857
vn 0.0000 -0.5725 -0.8199
vn 0.0000 -0.8741 0.4857
vn 0.2191 -0.5289 -0.8199
vn 0.3345 -0.8076 0.4857
vn 0.4047 -0.4047 -0.8200
vn 0.6181 -0.6181 0.4857
vn 0.5289 -0.2191 -0.8199
vn 0.8076 -0.3345 0.4857
s 1
f 1//1 2//2 3//3 4//4
f 4//4 3//3 5//5 6//6
f 6//6 5//5 7//7 8//8
f 8//8 7//7 9//9 10//10
f 10//10 9//9 11//11 12//12
f 12//12 11//11 13//13 14//14
f 14//14 13//13 15//15 16//16
f 16//16 15//15 17//17 18//18
f 18//18 17//17 19//19 20//20
f 20//20 19//19 21//21 22//22
f 22//22 21//21 23//23 24//24
f 24//24 23//23 25//25 26//26
f 26//26 25//25 27//27 28//28
f 28//28 27//27 29//29 30//30
f 30//30 29//29 31//31 32//32
f 32//32 31//31 2//2 1//1
f 1//1 4//4 6//6 8//8 10//10 12//12 14//14 16//16 18//18 20//20 22//22 24//24 26//26 28//28 30//30 32//32
f 2//2 31//31 29//29 27//27 25//25 23//23 21//21 19//19 17//17 15//15 13//13 11//11 9//9 7//7 5//5 3//3
